<svg width="19" height="19" viewBox="0 0 19 19" fill="none" xmlns="http://www.w3.org/2000/svg"><g clip-path="url(#clip0)"><path d="M18.996 4.686a.594.594 0 00-.339-.474L9.751.056a.594.594 0 00-.502 0L.343 4.212A.594.594 0 000 4.75v10.094c0 .243.148.461.373.551l8.907 3.563a.592.592 0 00.44 0l8.907-3.563a.594.594 0 00.373-.551V4.75l-.004-.064zM9.5 1.249l7.412 3.46-2.854 1.141-7.552-3.204L9.5 1.25zM5.058 3.322l7.435 3.154L9.5 7.673 2.088 4.708l2.97-1.386zm-3.87 2.305l7.718 3.088v8.814l-7.719-3.087V5.627zm8.906 11.902V8.715l7.719-3.088v8.815l-7.72 3.087z" fill="#273A64"/></g><defs><clipPath id="clip0"><path fill="#fff" d="M0 0h19v19H0z"/></clipPath></defs></svg>