<svg width="18" height="18" viewBox="0 0 18 18" fill="none" xmlns="http://www.w3.org/2000/svg"><path d="M15.328 0H2.672C1.8 0 1.09.71 1.09 1.582v14.836C1.09 17.29 1.8 18 2.672 18h12.656c.873 0 1.582-.71 1.582-1.582V1.582C16.91.71 16.2 0 15.328 0zm.527 16.418c0 .29-.236.527-.527.527H2.672a.528.528 0 01-.527-.527V1.582c0-.29.236-.527.527-.527h12.656c.29 0 .527.236.527.527v14.836z" fill="#273A64"/><path d="M14.273 2.11H3.727a.527.527 0 00-.528.527v4.289c0 .291.236.527.528.527h10.546a.527.527 0 00.528-.527v-4.29a.527.527 0 00-.528-.527zm-.527 4.288H4.254V3.164h9.492v3.234zm-7.91 2.11h-2.11a.527.527 0 00-.527.527v2.11c0 .29.236.527.528.527h2.109a.527.527 0 00.527-.527v-2.11a.527.527 0 00-.527-.527zm-.527 2.11H4.254V9.561h1.055v1.055zm.527 2.109h-2.11a.527.527 0 00-.527.527v2.11c0 .29.236.527.528.527h2.109a.527.527 0 00.527-.528v-2.11a.527.527 0 00-.527-.526zm-.527 2.109H4.254V13.78h1.055v1.055zm4.746-6.328h-2.11a.527.527 0 00-.527.527v2.11c0 .29.236.527.527.527h2.11a.527.527 0 00.527-.527v-2.11a.527.527 0 00-.527-.527zm-.528 2.11H8.473V9.561h1.054v1.055zm.528 2.109h-2.11a.527.527 0 00-.527.527v2.11c0 .29.236.527.527.527h2.11a.527.527 0 00.527-.528v-2.11a.527.527 0 00-.527-.526zm-.528 2.109H8.473V13.78h1.054v1.055zm4.746-6.328h-2.109a.527.527 0 00-.527.527v6.328c0 .292.236.528.527.528h2.11a.527.527 0 00.527-.528V9.035a.527.527 0 00-.528-.527zm-.527 6.328h-1.055V9.562h1.055v5.274z" fill="#273A64"/></svg>