<svg width="16" height="18" viewBox="0 0 16 18" fill="none" xmlns="http://www.w3.org/2000/svg"><path d="M9.786 14.825a4.615 4.615 0 01-3.596 1.703c-2.546 0-4.583-2.08-4.583-4.612 0-1.499.812-2.83 1.9-3.671V6.666C1.667 7.665.24 9.622.24 11.894c0 3.281 2.667 5.993 5.966 5.993 2.13 0 3.978-1.168 5.03-2.787-.077-.176-.164-.347-.25-.52-.398.094-.798.174-1.2.245zM6.4 4.235c1.177 0 2.13-.948 2.13-2.117C8.53.948 7.577 0 6.4 0a2.124 2.124 0 00-2.128 2.118c0 1.169.954 2.117 2.13 2.117z" fill="#353535"/><path d="M15.646 16.099l-2.224-5.145a1.366 1.366 0 00-1.556-.788l-4.478 1.032-.006-4.816A1.374 1.374 0 006.02 5.008c-.752 0-1.36.625-1.36 1.376l.006 6.52a1.366 1.366 0 001.667 1.331l5.041-1.16 1.773 4.103a1.364 1.364 0 001.791.71c.69-.298 1.007-1.1.71-1.79z" fill="#353535"/></svg>