<svg width="19" height="19" viewBox="0 0 19 19" fill="none" xmlns="http://www.w3.org/2000/svg"><path d="M9.5 17.943c-.27 0-.531-.098-.735-.276a220.448 220.448 0 00-2.16-1.858l-.003-.003c-1.914-1.631-3.567-3.04-4.718-4.428C.6 9.827 0 8.356 0 6.75c0-1.561.535-3.001 1.507-4.056a5.11 5.11 0 013.8-1.654 4.78 4.78 0 012.986 1.03c.446.346.85.768 1.207 1.26.356-.492.76-.914 1.207-1.26a4.78 4.78 0 012.985-1.03 5.11 5.11 0 013.8 1.654C18.466 3.748 19 5.188 19 6.75c0 1.607-.599 3.078-1.884 4.63-1.15 1.387-2.803 2.796-4.717 4.427-.654.557-1.395 1.188-2.165 1.861a1.115 1.115 0 01-.734.276zM5.308 2.152a4.01 4.01 0 00-2.983 1.296c-.781.848-1.212 2.02-1.212 3.301 0 1.352.502 2.56 1.628 3.92 1.089 1.313 2.708 2.692 4.582 4.29l.004.003a231.77 231.77 0 012.171 1.867 258.39 258.39 0 012.179-1.87c1.874-1.598 3.493-2.977 4.582-4.29 1.126-1.36 1.628-2.568 1.628-3.92 0-1.28-.43-2.453-1.213-3.301a4.008 4.008 0 00-2.982-1.296c-.844 0-1.62.269-2.304.798-.61.472-1.035 1.069-1.285 1.486a.697.697 0 01-.603.343.697.697 0 01-.603-.343c-.25-.417-.675-1.014-1.285-1.486a3.691 3.691 0 00-2.304-.798z" fill="#273A64"/></svg>