<svg width="21" height="21" viewBox="0 0 21 21" fill="none" xmlns="http://www.w3.org/2000/svg"><path d="M20.137 4.38H3.717l-.243-2.718a.862.862 0 00-.86-.786H.863a.862.862 0 000 1.725h.964l.992 11.051c.07.797.5 1.661 1.242 2.248-1.336 1.707-.115 4.224 2.06 4.224 1.804 0 3.077-1.8 2.458-3.505h4.72c-.618 1.703.652 3.505 2.459 3.505a2.618 2.618 0 002.614-2.615 2.618 2.618 0 00-2.614-2.615H6.125a1.602 1.602 0 01-1.472-.97l13.782-.81a.862.862 0 00.787-.653l1.752-7.009a.863.863 0 00-.837-1.071zM6.12 18.4a.89.89 0 010-1.78.89.89 0 010 1.78zm9.638 0a.89.89 0 010-1.78.89.89 0 010 1.78zm1.945-6.97l-13.282.78-.547-6.103h15.16l-1.331 5.322z" fill="#fff"/></svg>