<svg width="27" height="31" viewBox="0 0 27 31" fill="none" xmlns="http://www.w3.org/2000/svg"><path d="M23.45 6.692h-8.397v.966h8.396v-.966zm-11.393 0H3.81v.966h8.247v-.966z" fill="#273A64"/><path d="M13.611 6.208c.555 0 .999.446.999 1.004a.997.997 0 01-.999 1.004.997.997 0 01-.998-1.004c.037-.595.48-1.004.998-1.004zm0-1.003c-1.072 0-1.96.892-1.96 1.97 0 1.078.888 1.97 1.96 1.97 1.073 0 1.96-.892 1.96-1.97 0-1.078-.887-1.97-1.96-1.97zm10.652 13.792c-.444 1.71-1.96 2.974-3.81 2.974-1.812 0-3.365-1.264-3.81-2.974h7.62zm1.11-.967H15.57c0 2.714 2.182 4.944 4.92 4.944a4.946 4.946 0 004.882-4.944zm-14.833.967c-.443 1.71-1.96 2.974-3.809 2.974-1.812 0-3.365-1.264-3.81-2.974h7.62zm1.11-.967h-9.8c0 2.714 2.181 4.944 4.918 4.944a4.946 4.946 0 004.882-4.944zm6.51-1.004l2.33-4.684 2.33 4.684h1.11l-3.44-6.877-3.44 6.877h1.11zm-13.759 0l2.367-4.684 2.33 4.684h1.073L6.768 10.15l-3.44 6.877h1.073z" fill="#273A64"/></svg>