<svg width="25" height="28" viewBox="0 0 25 28" fill="none" xmlns="http://www.w3.org/2000/svg"><path d="M21.712 6.146h-7.774v.888h7.774v-.888zm-10.548 0H3.527v.888h7.637v-.888z" fill="#9F9F9F"/><path d="M12.603 5.702a.92.92 0 01.924.922.92.92 0 01-.924.922.92.92 0 01-.925-.922c.034-.546.445-.922.925-.922zm0-.921c-.993 0-1.815.819-1.815 1.81 0 .99.822 1.809 1.815 1.809s1.815-.82 1.815-1.81c0-.99-.822-1.81-1.815-1.81zm9.863 12.668a3.636 3.636 0 01-3.527 2.731 3.666 3.666 0 01-3.528-2.731h7.055zm1.027-.888h-9.075a4.546 4.546 0 004.555 4.541c2.5-.034 4.52-2.048 4.52-4.541zm-13.733.888a3.636 3.636 0 01-3.527 2.731 3.665 3.665 0 01-3.527-2.731H9.76zm1.028-.888H1.712a4.546 4.546 0 004.555 4.541c2.5-.034 4.52-2.048 4.52-4.541zm6.027-.922l2.157-4.303 2.158 4.303h1.027l-3.184-6.317-3.185 6.317h1.027zm-12.74 0l2.192-4.303 2.157 4.303h.994L6.267 9.322l-3.185 6.317h.993z" fill="#9F9F9F"/></svg>