<svg width="19" height="22" viewBox="0 0 19 22" fill="none" xmlns="http://www.w3.org/2000/svg"><path d="M4.769 18.535l-.988-.665 8.265-12.635.988.665-8.265 12.635zM1.9 10.67c-.608-.646-.912-1.438-.912-2.375s.304-1.723.912-2.356c.608-.646 1.38-.969 2.318-.969.937 0 1.71.323 2.318.97.608.632.912 1.418.912 2.355s-.304 1.73-.912 2.375c-.608.633-1.38.95-2.318.95-.937 0-1.71-.316-2.318-.95zm.874-3.933c-.355.393-.532.912-.532 1.558s.177 1.165.532 1.558c.355.393.836.59 1.444.59s1.09-.197 1.444-.59c.355-.393.532-.912.532-1.558s-.177-1.165-.532-1.558c-.355-.393-.836-.589-1.444-.589s-1.09.196-1.444.59zm7.505 11.115c-.608-.646-.912-1.438-.912-2.375s.304-1.723.912-2.356c.608-.646 1.38-.969 2.318-.969.937 0 1.71.323 2.318.97.608.633.912 1.418.912 2.355s-.304 1.73-.912 2.375c-.608.634-1.38.95-2.318.95-.937 0-1.71-.316-2.318-.95zm.874-3.933c-.355.393-.532.912-.532 1.558s.177 1.165.532 1.558c.355.393.836.59 1.444.59s1.09-.197 1.444-.59c.355-.392.532-.912.532-1.558s-.177-1.165-.532-1.558c-.355-.393-.836-.589-1.444-.589s-1.09.196-1.444.59z" fill="#273A64"/></svg>