<svg width="23" height="31" viewBox="0 0 23 31" fill="none" xmlns="http://www.w3.org/2000/svg"><path d="M11.5 31a1.847 1.847 0 01-1.62-.94l-.011-.018-7.687-14.07C.347 12.613.399 8.627 2.322 5.308 4.204 2.061 7.545.078 11.262.002c.158-.003.318-.003.476 0 3.716.076 7.058 2.06 8.94 5.306 1.923 3.319 1.975 7.305.14 10.664l-7.687 14.07-.01.019A1.851 1.851 0 0111.5 31zm0-29.063c-.066 0-.133 0-.2.002-3.031.062-5.761 1.684-7.3 4.34a8.87 8.87 0 00-.117 8.764L11.5 28.987l7.618-13.944a8.869 8.869 0 00-.117-8.763C17.462 3.624 14.732 2 11.7 1.939a9.882 9.882 0 00-.199-.002z" fill="#70F"/><path d="M11.5 14.047a4.364 4.364 0 01-4.36-4.36 4.364 4.364 0 014.36-4.359 4.364 4.364 0 014.36 4.36 4.364 4.364 0 01-4.36 4.359zm0-6.781a2.425 2.425 0 00-2.422 2.421A2.425 2.425 0 0011.5 12.11a2.425 2.425 0 002.422-2.421A2.425 2.425 0 0011.5 7.265z" fill="#70F"/></svg>