<svg width="23" height="31" viewBox="0 0 23 31" fill="none" xmlns="http://www.w3.org/2000/svg"><path d="M20.678 5.309c-1.882-3.247-5.223-5.23-8.94-5.307a11.6 11.6 0 00-.476 0c-3.716.076-7.058 2.06-8.94 5.307C.4 8.627.347 12.614 2.182 15.972l7.687 14.07.01.02c.338.587.944.938 1.621.938a1.851 1.851 0 001.631-.957l7.688-14.07c1.834-3.36 1.782-7.346-.141-10.664zM11.5 14.047a4.364 4.364 0 01-4.36-4.36 4.364 4.364 0 014.36-4.359 4.364 4.364 0 014.36 4.36 4.364 4.364 0 01-4.36 4.359z" fill="#70F"/></svg>