<svg width="46" height="37" viewBox="0 0 46 37" fill="none" xmlns="http://www.w3.org/2000/svg"><path d="M7.3 20.9v13.4H5c-1.2 0-2.2-.8-2.2-1.7v-9.9c0-.9 1-1.7 2.2-1.7h2.3v-.1zm2.2-2.2H5.1c-2.5 0-4.5 1.8-4.5 4v9.9c0 2.2 2 4 4.5 4h4.5V18.7h-.1z" fill="#353535"/><path d="M40.7 19.8h-2.2v-1.1c0-2.4-.8-4.9-2.4-7.5-3.2-5.1-8-8-13.2-8-5.2 0-10 2.9-13.2 8-1.6 2.6-2.4 5.1-2.4 7.5v1.1H5.1v-1.1c0-2.8.9-5.7 2.8-8.7C11.5 4.2 17 .9 22.9.9c6 0 11.5 3.3 15.1 9.1 1.8 3 2.8 5.9 2.8 8.7v1.1h-.1z" fill="#353535"/><path d="M40.7 20.9c1.2 0 2.2.8 2.2 1.7v9.9c0 .9-1 1.7-2.2 1.7h-2.2V20.9h2.2zm0-2.2h-4.5v17.8h4.4c2.5 0 4.5-1.8 4.5-4v-9.9c.1-2.1-1.9-3.9-4.4-3.9z" fill="#353535"/></svg>