<svg width="39" height="32" viewBox="0 0 39 32" fill="none" xmlns="http://www.w3.org/2000/svg"><path d="M6.608 17.875v11.374h-1.95c-1.018 0-1.866-.679-1.866-1.443v-8.403c0-.764.848-1.443 1.865-1.443h1.951v-.085zm1.866-1.868H4.742c-2.12 0-3.816 1.528-3.816 3.396v8.403c0 1.868 1.696 3.395 3.816 3.395H8.56V16.008h-.085z" fill="#fff"/><path d="M34.935 16.941h-1.866v-.934c0-2.037-.679-4.16-2.036-6.366-2.714-4.33-6.785-6.79-11.195-6.79s-8.48 2.46-11.195 6.79c-1.357 2.207-2.035 4.329-2.035 6.366v.934H4.742v-.934c0-2.377.763-4.838 2.375-7.385C10.17 3.7 14.835.898 19.838.898c5.089 0 9.754 2.801 12.807 7.724 1.526 2.547 2.374 5.008 2.374 7.385v.934h-.084z" fill="#fff"/><path d="M34.936 17.875c1.017 0 1.865.679 1.865 1.443v8.403c0 .764-.848 1.443-1.865 1.443H33.07v-11.29h1.866zm0-1.868h-3.817v15.11h3.732c2.12 0 3.816-1.528 3.816-3.396v-8.403c.085-1.783-1.611-3.31-3.731-3.31z" fill="#fff"/></svg>