<svg width="38" height="38" viewBox="0 0 38 38" fill="none" xmlns="http://www.w3.org/2000/svg"><path d="M19.303 2.28h-1.52v34.504h1.52V2.28z" fill="#353535"/><path d="M18.543 2.28c9.272 0 16.72 7.448 16.72 16.72 0 9.272-7.448 16.72-16.72 16.72A16.672 16.672 0 011.823 19c0-9.272 7.6-16.72 16.72-16.72zm0-1.52C8.51.76.303 8.968.303 19c0 10.032 8.208 18.24 18.24 18.24 10.032 0 18.24-8.208 18.24-18.24 0-10.032-8.056-18.24-18.24-18.24z" fill="#353535"/><path d="M18.544 2.28c5.016 0 9.12 7.6 9.12 16.72s-4.104 16.72-9.12 16.72c-5.016 0-9.12-7.6-9.12-16.72s4.256-16.72 9.12-16.72zm0-1.52C12.616.76 7.904 8.968 7.904 19c0 10.032 4.712 18.24 10.64 18.24 5.928 0 10.64-8.208 10.64-18.24 0-10.032-4.712-18.24-10.64-18.24z" fill="#353535"/><path d="M33.895 25.84H3.191v1.52h30.704v-1.52zm0-15.352H3.191v1.52h30.704v-1.52zm1.978 7.752H1.37v1.52h34.504v-1.52z" fill="#353535"/></svg>