<svg width="37" height="38" viewBox="0 0 37 38" fill="none" xmlns="http://www.w3.org/2000/svg"><path d="M7.16 1.72s.16 0 .32.16l7.36 7.52c.16.16.16.16.16.32 0 0 0 .16-.16.32l-3.2 3.2-.96.64.48.96c0 .16 1.76 4.32 4.16 6.88 2.4 2.56 6.56 4.32 6.72 4.48l.96.48.8-.8 3.2-3.2c.16-.16.16-.16.32-.16 0 0 .16 0 .32.16L35 30.2c.16.16.16.16.16.32 0 0 0 .16-.16.32l-4.96 4.8c0 .16-.16.16-.32.16C20.6 34.36 11.8 25.4 11.8 25.24c-.16 0-8.96-9.28-9.92-18.24 0-.16 0-.32.16-.48l4.8-4.64c.16-.16.16-.16.32-.16zm0-1.6c-.48 0-.96.16-1.44.48L.92 5.4c-.48.48-.8 1.12-.64 1.76 1.12 9.76 10.4 19.2 10.4 19.2S19.8 35.8 29.56 37.4h.32c.48 0 1.12-.16 1.44-.64l4.96-4.8c.8-.8.8-2.08 0-2.88l-7.36-7.52c-.32-.48-.96-.64-1.44-.64s-.96.16-1.44.64l-3.2 3.2s-4-1.76-6.24-4.16c-2.24-2.4-3.84-6.4-3.84-6.4l3.2-3.2c.8-.8.8-2.08 0-2.88L8.6.76C8.12.28 7.64.12 7.16.12z" fill="#353535"/></svg>