<svg width="39" height="39" viewBox="0 0 39 39" fill="none" xmlns="http://www.w3.org/2000/svg"><path d="M29.953 2.34l.156 34.164s0 .156-.156.156H8.269s-.156 0-.156-.156V2.34s0-.156.156-.156h21.684v.156zm0-1.56H8.269c-.936 0-1.716.78-1.716 1.716V36.66c0 .936.78 1.716 1.716 1.716h21.684c.936 0 1.716-.78 1.716-1.716V2.34c-.156-.936-.78-1.56-1.716-1.56z" fill="#353535"/><path d="M19.032 35.1c.468 0 .78-.312.78-.78s-.312-.78-.78-.78-.78.312-.78.78.468.78.78.78zm12.481-4.68H6.553v1.56h24.96v-1.56z" fill="#353535"/></svg>