<svg width="38" height="39" viewBox="0 0 38 39" fill="none" xmlns="http://www.w3.org/2000/svg"><path d="M31.512 17.94v18.72H6.552V16.38h-1.56v20.28c0 .78.624 1.56 1.56 1.56h24.96c.78 0 1.56-.624 1.56-1.56V16.38h-1.56v1.56z" fill="#353535"/><path d="M19.033.781L.625 15.913l1.092 1.248L19.033 2.809l17.472 14.352 1.092-1.248L19.033.781zm3.277 24.647c-.78-.78-2.028-1.248-3.276-1.248-1.248 0-2.496.468-3.276 1.404l1.092 1.092c.624-.624 1.404-.936 2.184-.936.78 0 1.56.312 2.184.936l1.092-1.248zm-4.369 2.34l1.092 1.092 1.092-1.092c-.312-.312-.624-.468-1.092-.468-.312 0-.78.156-1.092.468z" fill="#353535"/><path d="M24.492 23.244c-1.404-1.404-3.276-2.184-5.46-2.184s-4.056.936-5.46 2.34l1.092 1.092c1.092-1.092 2.652-1.872 4.368-1.872 1.716 0 3.276.624 4.368 1.716l1.092-1.092z" fill="#353535"/></svg>