<svg width="23" height="31" viewBox="0 0 23 31" fill="none" xmlns="http://www.w3.org/2000/svg">
<path d="M11.5001 30.9995C10.8234 30.9995 10.2174 30.6486 9.87923 30.0607C9.87566 30.0546 9.87221 30.0483 9.86876 30.0421L2.1816 15.9719C0.346669 12.6133 0.399284 8.62679 2.32237 5.3081C4.20375 2.06133 7.54545 0.0777533 11.2615 0.00194861C11.4202 -0.00132092 11.5798 -0.00132092 11.7384 0.00194861C15.4545 0.0777533 18.7962 2.06133 20.6776 5.3081C22.6007 8.62679 22.6533 12.6132 20.8184 15.9719L13.1313 30.0421C13.1278 30.0483 13.1244 30.0546 13.1208 30.0607C12.7826 30.6485 12.1767 30.9995 11.5001 30.9995ZM11.5 1.93703C11.4335 1.93703 11.3671 1.93769 11.3009 1.93902C8.26753 2.0009 5.53772 3.6235 3.99868 6.27951C2.41798 9.00745 2.37426 12.2835 3.88182 15.0428L11.5 28.9868L19.1181 15.0429C20.6257 12.2835 20.582 9.00745 19.0012 6.27951C17.4622 3.62356 14.7324 2.0009 11.699 1.93902C11.633 1.93769 11.5666 1.93703 11.5 1.93703Z" fill="#7700FF"/>
<path d="M11.5 14.0469C9.09623 14.0469 7.14062 12.0913 7.14062 9.6875C7.14062 7.28373 9.09623 5.32812 11.5 5.32812C13.9038 5.32812 15.8594 7.28373 15.8594 9.6875C15.8594 12.0913 13.9038 14.0469 11.5 14.0469ZM11.5 7.26562C10.1646 7.26562 9.07812 8.35208 9.07812 9.6875C9.07812 11.0229 10.1646 12.1094 11.5 12.1094C12.8354 12.1094 13.9219 11.0229 13.9219 9.6875C13.9219 8.35208 12.8354 7.26562 11.5 7.26562Z" fill="#7700FF"/>
</svg>
