<svg width="23" height="31" viewBox="0 0 23 31" fill="none" xmlns="http://www.w3.org/2000/svg">
<path d="M20.6776 5.30855C18.7963 2.06179 15.4546 0.0782111 11.7385 0.00240637C11.5799 -0.000863159 11.4202 -0.000863159 11.2615 0.00240637C7.54551 0.0782111 4.20381 2.06179 2.32237 5.30855C0.399284 8.62725 0.346669 12.6137 2.1816 15.9722L9.86882 30.0426C9.87227 30.0488 9.87572 30.055 9.87929 30.0612C10.2175 30.6491 10.8234 31 11.5001 31C12.1768 31 12.7827 30.649 13.1208 30.0612C13.1244 30.055 13.1279 30.0488 13.1313 30.0426L20.8185 15.9722C22.6534 12.6137 22.6007 8.62725 20.6776 5.30855ZM11.5 14.0469C9.09624 14.0469 7.14063 12.0913 7.14063 9.68748C7.14063 7.28371 9.09624 5.32811 11.5 5.32811C13.9038 5.32811 15.8594 7.28371 15.8594 9.68748C15.8594 12.0913 13.9038 14.0469 11.5 14.0469Z" fill="#7700FF"/>
</svg>
