<svg width="46" height="37" viewBox="0 0 46 37" fill="none" xmlns="http://www.w3.org/2000/svg">
<path d="M7.29961 20.9V34.3H4.99961C3.79961 34.3 2.79961 33.5 2.79961 32.6V22.7C2.79961 21.8 3.79961 21 4.99961 21H7.29961V20.9ZM9.49961 18.7H5.09961C2.59961 18.7 0.599609 20.5 0.599609 22.7V32.6C0.599609 34.8 2.59961 36.6 5.09961 36.6H9.59961V18.7H9.49961Z" fill="#353535"/>
<path d="M40.6996 19.8H38.4996V18.7C38.4996 16.3 37.6996 13.8 36.0996 11.2C32.8996 6.1 28.0996 3.2 22.8996 3.2C17.6996 3.2 12.8996 6.1 9.69961 11.2C8.09961 13.8 7.29961 16.3 7.29961 18.7V19.8H5.09961V18.7C5.09961 15.9 5.99961 13 7.89961 9.99999C11.4996 4.19999 16.9996 0.899994 22.8996 0.899994C28.8996 0.899994 34.3996 4.19999 37.9996 9.99999C39.7996 13 40.7996 15.9 40.7996 18.7V19.8H40.6996Z" fill="#353535"/>
<path d="M40.6992 20.9C41.8992 20.9 42.8992 21.7 42.8992 22.6V32.5C42.8992 33.4 41.8992 34.2 40.6992 34.2H38.4992V20.9H40.6992ZM40.6992 18.7H36.1992V36.5H40.5992C43.0992 36.5 45.0992 34.7 45.0992 32.5V22.6C45.1992 20.5 43.1992 18.7 40.6992 18.7Z" fill="#353535"/>
</svg>
