<svg width="39" height="32" viewBox="0 0 39 32" fill="none" xmlns="http://www.w3.org/2000/svg">
<path d="M6.60806 17.8748V29.2492H4.65743C3.6397 29.2492 2.7916 28.5701 2.7916 27.8062V19.4027C2.7916 18.6387 3.6397 17.9596 4.65743 17.9596H6.60806V17.8748ZM8.47388 16.0073H4.74224C2.62198 16.0073 0.925781 17.5352 0.925781 19.4027V27.8062C0.925781 29.6736 2.62198 31.2015 4.74224 31.2015H8.55869V16.0073H8.47388Z" fill="white"/>
<path d="M34.9346 16.941H33.0688V16.0073C33.0688 13.97 32.3903 11.8479 31.0333 9.64097C28.3194 5.3119 24.2485 2.85028 19.8384 2.85028C15.4283 2.85028 11.3574 5.3119 8.64345 9.64097C7.28649 11.8479 6.60801 13.97 6.60801 16.0073V16.941H4.74219V16.0073C4.74219 13.6305 5.50548 11.1689 7.11687 8.62237C10.17 3.69911 14.8346 0.897949 19.8384 0.897949C24.927 0.897949 29.5916 3.69911 32.6447 8.62237C34.1713 11.1689 35.0194 13.6305 35.0194 16.0073V16.941H34.9346Z" fill="white"/>
<path d="M34.9356 17.8748C35.9533 17.8748 36.8014 18.5538 36.8014 19.3178V27.7213C36.8014 28.4852 35.9533 29.1643 34.9356 29.1643H33.0698V17.8748H34.9356ZM34.9356 16.0073H31.1191V31.1166H34.8508C36.971 31.1166 38.6672 29.5887 38.6672 27.7213V19.3178C38.7521 17.5352 37.0559 16.0073 34.9356 16.0073Z" fill="white"/>
</svg>
