<svg width="38" height="38" viewBox="0 0 38 38" fill="none" xmlns="http://www.w3.org/2000/svg">
<path d="M19.3032 2.28H17.7832V36.784H19.3032V2.28Z" fill="#353535"/>
<path d="M18.5427 2.28001C27.8147 2.28001 35.2627 9.72801 35.2627 19C35.2627 28.272 27.8147 35.72 18.5427 35.72C9.27073 35.72 1.82273 28.272 1.82273 19C1.82273 9.72801 9.42274 2.28001 18.5427 2.28001ZM18.5427 0.76001C8.51074 0.76001 0.302734 8.96801 0.302734 19C0.302734 29.032 8.51074 37.24 18.5427 37.24C28.5747 37.24 36.7827 29.032 36.7827 19C36.7827 8.96801 28.7267 0.76001 18.5427 0.76001Z" fill="#353535"/>
<path d="M18.5443 2.28001C23.5603 2.28001 27.6643 9.88001 27.6643 19C27.6643 28.12 23.5603 35.72 18.5443 35.72C13.5283 35.72 9.4243 28.12 9.4243 19C9.4243 9.88001 13.6803 2.28001 18.5443 2.28001ZM18.5443 0.76001C12.6163 0.76001 7.9043 8.96801 7.9043 19C7.9043 29.032 12.6163 37.24 18.5443 37.24C24.4723 37.24 29.1843 29.032 29.1843 19C29.1843 8.96801 24.4723 0.76001 18.5443 0.76001Z" fill="#353535"/>
<path d="M33.8954 25.84H3.19141V27.36H33.8954V25.84Z" fill="#353535"/>
<path d="M33.8954 10.488H3.19141V12.008H33.8954V10.488Z" fill="#353535"/>
<path d="M35.8731 18.24H1.36914V19.76H35.8731V18.24Z" fill="#353535"/>
</svg>
