<svg width="37" height="38" viewBox="0 0 37 38" fill="none" xmlns="http://www.w3.org/2000/svg">
<path d="M7.1599 1.72C7.1599 1.72 7.3199 1.72 7.4799 1.87999L14.8399 9.4C14.9999 9.56 14.9999 9.56 14.9999 9.72C14.9999 9.72 14.9999 9.88 14.8399 10.04L11.6399 13.24L10.6799 13.88L11.1599 14.84C11.1599 15 12.9199 19.16 15.3199 21.72C17.7199 24.28 21.8799 26.04 22.0399 26.2L22.9999 26.68L23.7999 25.88L26.9999 22.68C27.1599 22.52 27.1599 22.52 27.3199 22.52C27.3199 22.52 27.4799 22.52 27.6399 22.68L34.9999 30.2C35.1599 30.36 35.1599 30.36 35.1599 30.52C35.1599 30.52 35.1599 30.68 34.9999 30.84L30.0399 35.64C30.0399 35.8 29.8799 35.8 29.7199 35.8C20.5999 34.36 11.7999 25.4 11.7999 25.24C11.6399 25.24 2.8399 15.96 1.8799 7C1.8799 6.84 1.8799 6.68 2.0399 6.51999L6.8399 1.87999C6.9999 1.72 6.9999 1.72 7.1599 1.72ZM7.1599 0.119995C6.6799 0.119995 6.1999 0.279995 5.7199 0.599995L0.919902 5.4C0.439902 5.88 0.119902 6.52 0.279902 7.16C1.3999 16.92 10.6799 26.36 10.6799 26.36C10.6799 26.36 19.7999 35.8 29.5599 37.4C29.7199 37.4 29.7199 37.4 29.8799 37.4C30.3599 37.4 30.9999 37.24 31.3199 36.76L36.2799 31.96C37.0799 31.16 37.0799 29.88 36.2799 29.08L28.9199 21.56C28.5999 21.08 27.9599 20.92 27.4799 20.92C26.9999 20.92 26.5199 21.08 26.0399 21.56L22.8399 24.76C22.8399 24.76 18.8399 23 16.5999 20.6C14.3599 18.2 12.7599 14.2 12.7599 14.2L15.9599 11C16.7599 10.2 16.7599 8.92 15.9599 8.12L8.5999 0.759995C8.1199 0.279995 7.6399 0.119995 7.1599 0.119995Z" fill="#353535"/>
</svg>
