<svg width="39" height="39" viewBox="0 0 39 39" fill="none" xmlns="http://www.w3.org/2000/svg">
<path d="M29.9527 2.34L30.1087 36.504C30.1087 36.504 30.1087 36.66 29.9527 36.66H8.26874C8.26874 36.66 8.11273 36.66 8.11273 36.504V2.34C8.11273 2.34 8.11274 2.184 8.26874 2.184H29.9527V2.34ZM29.9527 0.779999H8.26874C7.33273 0.779999 6.55273 1.56 6.55273 2.496V36.66C6.55273 37.596 7.33273 38.376 8.26874 38.376H29.9527C30.8887 38.376 31.6687 37.596 31.6687 36.66V2.34C31.5127 1.404 30.8887 0.779999 29.9527 0.779999Z" fill="#353535"/>
<path d="M19.032 35.1C19.5 35.1 19.812 34.788 19.812 34.32C19.812 33.852 19.5 33.54 19.032 33.54C18.564 33.54 18.252 33.852 18.252 34.32C18.252 34.788 18.72 35.1 19.032 35.1Z" fill="#353535"/>
<path d="M31.5127 30.42H6.55273V31.98H31.5127V30.42Z" fill="#353535"/>
</svg>
