<svg width="38" height="39" viewBox="0 0 38 39" fill="none" xmlns="http://www.w3.org/2000/svg">
<path d="M31.5122 17.94V36.66H6.55219V19.5V17.94V16.38H4.99219V36.66C4.99219 37.44 5.61619 38.22 6.55219 38.22H31.5122C32.2922 38.22 33.0722 37.596 33.0722 36.66V16.38H31.5122V17.94Z" fill="#353535"/>
<path d="M19.033 0.781036L0.625 15.913L1.717 17.161L19.033 2.80904L36.505 17.161L37.597 15.913L19.033 0.781036Z" fill="#353535"/>
<path d="M22.3098 25.428C21.5298 24.648 20.2818 24.18 19.0338 24.18C17.7858 24.18 16.5378 24.648 15.7578 25.584L16.8498 26.676C17.4738 26.052 18.2538 25.74 19.0338 25.74C19.8138 25.74 20.5938 26.052 21.2178 26.676L22.3098 25.428Z" fill="#353535"/>
<path d="M17.9414 27.768L19.0334 28.86L20.1254 27.768C19.8134 27.456 19.5014 27.3 19.0334 27.3C18.7214 27.3 18.2534 27.456 17.9414 27.768Z" fill="#353535"/>
<path d="M24.4923 23.244C23.0883 21.84 21.2163 21.06 19.0323 21.06C16.8483 21.06 14.9763 21.996 13.5723 23.4L14.6643 24.492C15.7563 23.4 17.3163 22.62 19.0323 22.62C20.7483 22.62 22.3083 23.244 23.4003 24.336L24.4923 23.244Z" fill="#353535"/>
</svg>
