<svg width="45" height="51" viewBox="0 0 45 51" fill="none" xmlns="http://www.w3.org/2000/svg">
<path d="M41.7594 12.24V34.68H2.15938V12.24H41.7594ZM41.7594 10.2H2.15938C1.07937 10.2 0.359375 11.22 0.359375 12.24V34.68C0.359375 35.904 1.25938 36.72 2.15938 36.72H41.7594C42.8394 36.72 43.5594 35.7 43.5594 34.68V12.24C43.5594 11.016 42.8394 10.2 41.7594 10.2Z" fill="#353535"/>
<path d="M21.9598 36.516C14.2198 36.516 8.45977 37.944 5.75977 38.556V40.596C7.91977 39.984 13.8598 38.352 21.9598 38.352C30.0598 38.352 35.9998 39.78 38.1598 40.596V38.556C35.6398 37.944 29.8798 36.516 21.9598 36.516Z" fill="#353535"/>
</svg>
