<svg width="19" height="19" viewBox="0 0 19 19" fill="none" xmlns="http://www.w3.org/2000/svg">
<g clip-path="url(#clip0)">
<path d="M18.9963 4.686C18.9741 4.48164 18.8471 4.30077 18.6573 4.21219L9.75105 0.055936C9.59188 -0.0183198 9.40804 -0.0183198 9.24888 0.055936L0.342631 4.21219C0.152854 4.30077 0.0258652 4.4816 0.00363672 4.686C0.0031543 4.69027 0 4.74712 0 4.75024V14.844C0 15.0868 0.147807 15.3051 0.373246 15.3952L9.2795 18.9577C9.35026 18.9861 9.42515 19.0002 9.5 19.0002C9.57485 19.0002 9.64974 18.9861 9.7205 18.9577L18.6268 15.3952C18.8522 15.3051 19 15.0868 19 14.844V4.75024C19 4.74712 18.9968 4.69023 18.9963 4.686ZM9.5 1.24919L16.9124 4.7083L14.0581 5.85001L6.50628 2.64628L9.5 1.24919ZM5.05838 3.32197L12.4931 6.47601L9.5 7.67323L2.08763 4.7083L5.05838 3.32197ZM1.1875 5.6272L8.90625 8.7147V17.5295L1.1875 14.442V5.6272ZM10.0938 17.5295V8.7147L17.8125 5.6272V14.442L10.0938 17.5295Z" fill="#273A64"/>
</g>
<defs>
<clipPath id="clip0">
<rect width="19" height="19" fill="white"/>
</clipPath>
</defs>
</svg>
