<svg width="16" height="18" viewBox="0 0 16 18" fill="none" xmlns="http://www.w3.org/2000/svg">
<path d="M9.78629 14.8251C8.94153 15.8643 7.64839 16.5282 6.18957 16.5282C3.64399 16.5282 1.60673 14.4474 1.60673 11.9159C1.60673 10.417 2.41926 9.08593 3.50659 8.24457V6.66644C1.66667 7.665 0.241211 9.62196 0.241211 11.8944C0.241211 15.1751 2.90779 17.8875 6.2071 17.8875C8.33708 17.8875 10.1849 16.7187 11.2372 15.1004C11.1597 14.924 11.0727 14.7533 10.9878 14.5808C10.5886 14.6735 10.1889 14.7544 9.78629 14.8251Z" fill="#353535"/>
<path d="M6.40091 4.23509C7.57695 4.23509 8.53033 3.28704 8.53033 2.11755C8.53033 0.948058 7.57695 0 6.40091 0C5.22486 0 4.27148 0.948058 4.27148 2.11755C4.27148 3.28704 5.22486 4.23509 6.40091 4.23509Z" fill="#353535"/>
<path d="M15.6463 16.0985L13.4224 10.9536C13.1618 10.3514 12.507 10.0212 11.8663 10.1665L7.38755 11.1979L7.38246 6.38207C7.38133 5.63005 6.77179 5.00807 6.02033 5.00807C6.02033 5.00807 6.0192 5.00807 6.01863 5.00807C5.26661 5.00807 4.6582 5.63288 4.6582 6.38434L4.66499 12.9032C4.66499 13.3171 4.85497 13.7135 5.17953 13.9713C5.50409 14.2297 5.9293 14.3287 6.33189 14.2348L11.3733 13.0745L13.1459 17.1779C13.3693 17.6924 13.8702 18 14.3972 18C14.577 18 14.7614 17.965 14.9372 17.8881C15.627 17.5901 15.9437 16.7883 15.6463 16.0985Z" fill="#353535"/>
</svg>
