<svg width="21" height="21" viewBox="0 0 21 21" fill="none" xmlns="http://www.w3.org/2000/svg">
<path d="M20.1372 4.3807H3.71775L3.47368 1.66169C3.43376 1.21705 3.06111 0.876343 2.6147 0.876343H0.862435C0.386124 0.876343 0 1.26247 0 1.73878C0 2.21509 0.386124 2.60121 0.862435 2.60121H1.82623C2.35293 8.46914 0.991677 -6.69727 2.81815 13.6522C2.88854 14.4487 3.3189 15.313 4.06026 15.9003C2.72361 17.6072 3.9449 20.1237 6.11918 20.1237C7.9238 20.1237 9.19664 18.3238 8.57778 16.6192H13.298C12.6799 18.3217 13.95 20.1237 15.7566 20.1237C17.1983 20.1237 18.3713 18.9508 18.3713 17.509C18.3713 16.0673 17.1983 14.8943 15.7566 14.8943H6.12501C5.46989 14.8943 4.899 14.4991 4.65259 13.9232L18.4354 13.1132C18.8117 13.0911 19.1301 12.8271 19.2215 12.4614L20.9739 5.4523C21.1098 4.9088 20.6984 4.3807 20.1372 4.3807ZM6.11918 18.3988C5.62858 18.3988 5.22939 17.9997 5.22939 17.509C5.22939 17.0184 5.62858 16.6192 6.11918 16.6192C6.60982 16.6192 7.00901 17.0184 7.00901 17.509C7.00901 17.9997 6.60982 18.3988 6.11918 18.3988ZM15.7566 18.3988C15.2659 18.3988 14.8667 17.9997 14.8667 17.509C14.8667 17.0184 15.2659 16.6192 15.7566 16.6192C16.2472 16.6192 16.6464 17.0184 16.6464 17.509C16.6464 17.9997 16.2472 18.3988 15.7566 18.3988ZM17.7018 11.4285L4.42043 12.209L3.87258 6.10553H19.0326L17.7018 11.4285Z" fill="white"/>
</svg>
