<svg width="27" height="31" viewBox="0 0 27 31" fill="none" xmlns="http://www.w3.org/2000/svg">
<path d="M23.4491 6.69165H15.0532V7.65821H23.4491V6.69165Z" fill="#273A64"/>
<path d="M12.0575 6.69165H3.80957V7.65821H12.0575V6.69165Z" fill="#273A64"/>
<path d="M13.6112 6.20833C14.1659 6.20833 14.6098 6.65443 14.6098 7.21206C14.6098 7.7697 14.1659 8.2158 13.6112 8.2158C13.0564 8.2158 12.6125 7.7697 12.6125 7.21206C12.6495 6.61726 13.0933 6.20833 13.6112 6.20833ZM13.6112 5.20459C12.5385 5.20459 11.6509 6.0968 11.6509 7.17489C11.6509 8.25298 12.5385 9.14519 13.6112 9.14519C14.6838 9.14519 15.5714 8.25298 15.5714 7.17489C15.5714 6.0968 14.6838 5.20459 13.6112 5.20459Z" fill="#273A64"/>
<path d="M24.2631 18.9966C23.8192 20.7067 22.3028 21.9706 20.4535 21.9706C18.6412 21.9706 17.0877 20.7067 16.6439 18.9966H24.2631ZM25.3727 18.03H15.5713C15.5713 20.7438 17.7535 22.9744 20.4905 22.9744C23.1905 22.9372 25.3727 20.7438 25.3727 18.03Z" fill="#273A64"/>
<path d="M10.5409 18.9966C10.0971 20.7067 8.58063 21.9706 6.73131 21.9706C4.91898 21.9706 3.36556 20.7067 2.92172 18.9966H10.5409ZM11.6505 18.03H1.84912C1.84912 20.7438 4.03131 22.9744 6.7683 22.9744C9.4683 22.9372 11.6505 20.7438 11.6505 18.03Z" fill="#273A64"/>
<path d="M18.1604 17.0264L20.4905 12.3423L22.8206 17.0264H23.9302L20.4905 10.1489L17.0508 17.0264H18.1604Z" fill="#273A64"/>
<path d="M4.40122 17.0264L6.76834 12.3423L9.09848 17.0264H10.1711L6.76834 10.1489L3.32861 17.0264H4.40122Z" fill="#273A64"/>
</svg>
