<svg width="25" height="28" viewBox="0 0 25 28" fill="none" xmlns="http://www.w3.org/2000/svg">
<path d="M21.7125 6.14636H13.9385V7.03417H21.7125V6.14636Z" fill="#9F9F9F"/>
<path d="M11.1643 6.14636H3.52734V7.03417H11.1643V6.14636Z" fill="#9F9F9F"/>
<path d="M12.6027 5.70247C13.1164 5.70247 13.5273 6.11222 13.5273 6.62442C13.5273 7.13662 13.1164 7.54637 12.6027 7.54637C12.089 7.54637 11.678 7.13662 11.678 6.62442C11.7123 6.07808 12.1232 5.70247 12.6027 5.70247ZM12.6027 4.78052C11.6095 4.78052 10.7876 5.60003 10.7876 6.59027C10.7876 7.58052 11.6095 8.40003 12.6027 8.40003C13.5958 8.40003 14.4177 7.58052 14.4177 6.59027C14.4177 5.60003 13.5958 4.78052 12.6027 4.78052Z" fill="#9F9F9F"/>
<path d="M22.4659 17.4488C22.055 19.0196 20.6508 20.1805 18.9385 20.1805C17.2604 20.1805 15.8221 19.0196 15.4111 17.4488H22.4659ZM23.4933 16.561H14.418C14.418 19.0537 16.4385 21.1025 18.9728 21.1025C21.4728 21.0683 23.4933 19.0537 23.4933 16.561Z" fill="#9F9F9F"/>
<path d="M9.76035 17.4488C9.34939 19.0196 7.94528 20.1805 6.23295 20.1805C4.55487 20.1805 3.11651 19.0196 2.70555 17.4488H9.76035ZM10.7877 16.561H1.7124C1.7124 19.0537 3.73295 21.1025 6.2672 21.1025C8.7672 21.0683 10.7877 19.0537 10.7877 16.561Z" fill="#9F9F9F"/>
<path d="M16.815 15.639L18.9725 11.3365L21.1301 15.639H22.1575L18.9725 9.3219L15.7876 15.639H16.815Z" fill="#9F9F9F"/>
<path d="M4.07518 15.639L6.26696 11.3365L8.4245 15.639H9.41765L6.26696 9.3219L3.08203 15.639H4.07518Z" fill="#9F9F9F"/>
</svg>
