<svg width="19" height="22" viewBox="0 0 19 22" fill="none" xmlns="http://www.w3.org/2000/svg">
<path d="M4.769 18.5352L3.781 17.8702L12.046 5.23516L13.034 5.90016L4.769 18.5352ZM1.9 10.6692C1.292 10.0232 0.988 9.23149 0.988 8.29416C0.988 7.35682 1.292 6.57149 1.9 5.93816C2.508 5.29216 3.28067 4.96916 4.218 4.96916C5.15533 4.96916 5.928 5.29216 6.536 5.93816C7.144 6.57149 7.448 7.35682 7.448 8.29416C7.448 9.23149 7.144 10.0232 6.536 10.6692C5.928 11.3025 5.15533 11.6192 4.218 11.6192C3.28067 11.6192 2.508 11.3025 1.9 10.6692ZM2.774 6.73616C2.41933 7.12882 2.242 7.64816 2.242 8.29416C2.242 8.94016 2.41933 9.45949 2.774 9.85216C3.12867 10.2448 3.61 10.4412 4.218 10.4412C4.826 10.4412 5.30733 10.2448 5.662 9.85216C6.01667 9.45949 6.194 8.94016 6.194 8.29416C6.194 7.64816 6.01667 7.12882 5.662 6.73616C5.30733 6.34349 4.826 6.14716 4.218 6.14716C3.61 6.14716 3.12867 6.34349 2.774 6.73616ZM10.279 17.8512C9.671 17.2052 9.367 16.4135 9.367 15.4762C9.367 14.5388 9.671 13.7535 10.279 13.1202C10.887 12.4742 11.6597 12.1512 12.597 12.1512C13.5343 12.1512 14.307 12.4742 14.915 13.1202C15.523 13.7535 15.827 14.5388 15.827 15.4762C15.827 16.4135 15.523 17.2052 14.915 17.8512C14.307 18.4845 13.5343 18.8012 12.597 18.8012C11.6597 18.8012 10.887 18.4845 10.279 17.8512ZM11.153 13.9182C10.7983 14.3108 10.621 14.8302 10.621 15.4762C10.621 16.1222 10.7983 16.6415 11.153 17.0342C11.5077 17.4268 11.989 17.6232 12.597 17.6232C13.205 17.6232 13.6863 17.4268 14.041 17.0342C14.3957 16.6415 14.573 16.1222 14.573 15.4762C14.573 14.8302 14.3957 14.3108 14.041 13.9182C13.6863 13.5255 13.205 13.3292 12.597 13.3292C11.989 13.3292 11.5077 13.5255 11.153 13.9182Z" fill="#273A64"/>
</svg>
