<svg width="18" height="12" viewBox="0 0 18 12" fill="none" xmlns="http://www.w3.org/2000/svg">
<path d="M0.109864 6.26513L5.73486 11.8901C5.88136 12.0366 6.11866 12.0366 6.26513 11.8901C6.41162 11.7436 6.41162 11.5063 6.26513 11.3599L1.28025 6.37499L17.625 6.37499C17.8323 6.37499 18 6.20726 18 5.99998C18 5.7927 17.8323 5.62497 17.625 5.62497L1.28025 5.62497L6.26513 0.640127C6.41162 0.493631 6.41162 0.256328 6.26513 0.109866C6.1919 0.0366353 6.09592 2.77401e-06 5.99998 2.76562e-06C5.90404 2.75723e-06 5.80809 0.0366353 5.73483 0.109866L0.109828 5.73487C-0.036632 5.88133 -0.036632 6.11863 0.109864 6.26513Z" fill="#767676"/>
</svg>
