<svg width="16" height="8" viewBox="0 0 16 8" fill="none" xmlns="http://www.w3.org/2000/svg">
<path d="M14.8301 3.689C14.8299 3.68882 14.8298 3.68862 14.8296 3.68844L11.7679 0.64157C11.5386 0.413318 11.1676 0.414168 10.9393 0.643562C10.711 0.872927 10.7119 1.24391 10.9412 1.47219L12.9968 3.51782H0.587891C0.264277 3.51782 0.00195312 3.78014 0.00195312 4.10375C0.00195312 4.42737 0.264277 4.68969 0.587891 4.68969H12.9968L10.9413 6.73531C10.7119 6.96359 10.711 7.33458 10.9393 7.56394C11.1676 7.79337 11.5386 7.79416 11.768 7.56594L14.8296 4.51906C14.8298 4.51889 14.8299 4.51868 14.8301 4.51851C15.0596 4.28947 15.0589 3.91728 14.8301 3.689Z" fill="#353535"/>
</svg>
